{"accessors" : [{"bufferView" : 0, "byteOffset" : 0, "componentType" : 5123, "count" : 5934, "type" : "SCALAR", "max" : [2346], "min" : [0]}, {"bufferView" : 1, "byteOffset" : 0, "componentType" : 5126, "count" : 2347, "type" : "VEC3", "max" : [5, 2.5, 2.799999952316284], "min" : [-5, -2.5, -2.5], "name" : "POSITION"}, {"bufferView" : 1, "byteOffset" : 12, "componentType" : 5126, "count" : 2347, "type" : "VEC2", "max" : [5, 6], "min" : [-2.5, -4], "name" : "TEXCOORD_0"}, {"bufferView" : 1, "byteOffset" : 20, "componentType" : 5126, "count" : 2347, "type" : "VEC3", "max" : [1.0000044107437134, 1.0000044107437134, 1.0000044107437134], "min" : [-1.0000044107437134, -1.0000044107437134, -1.0000044107437134], "name" : "NORMAL"}], "asset" : {"generator" : "Aspose.3D 24.9.1", "version" : "2.0"}, "buffers" : [{"uri" : "data:application/octet-stream;base64,", "byteLength" : 86980}], "bufferViews" : [{"buffer" : 0, "byteOffset" : 0, "byteLength" : 11868, "target" : 34963}, {"buffer" : 0, "byteOffset" : 11872, "byteLength" : 75104, "byteStride" : 32, "target" : 34962}], "materials" : [{"name" : "Aluminum_-_Anodized_Glossy_(Red)", "pbrMetallicRoughness" : {"baseColorFactor" : [0.854902, 0.34902, 0.34902, 1], "metallicFactor" : 1, "roughnessFactor" : 1}, "emissiveFactor" : [0, 0, 0], "alphaMode" : "OPAQUE", "doubleSided" : false}], "meshes" : [{"primitives" : [{"attributes" : {"POSITION" : 1, "TEXCOORD_0" : 2, "NORMAL" : 3}, "indices" : 0, "material" : 0, "mode" : 4}], "name" : ""}], "nodes" : [{"mesh" : 0, "name" : "Body2"}], "scene" : 0, "scenes" : [{"nodes" : [0]}]}